<svg xmlns="http://www.w3.org/2000/svg" viewBox="0 0 24 24" width="24" height="24">
  <rect width="24" height="24" rx="5" fill="#3f51b5"/>
  <g fill="#ffffff">
    <ellipse cx="12" cy="6.5" rx="6" ry="2.4"/>
    <path d="M6 6.5v4c0 1.33 2.69 2.4 6 2.4s6-1.07 6-2.4v-4c0 1.33-2.69 2.4-6 2.4S6 7.83 6 6.5z"/>
    <path d="M6 11.5v3.2c0 1.1 1.84 2.02 4.3 2.3l-1.1-1.1 1.4-1.4 3.2 3.2-3.2 3.2-1.4-1.4 1.05-1.05C7.2 18.1 4.5 16.6 4.5 14.7" opacity="0"/>
    <path d="M18 12.2v3.3c0 1.33-2.69 2.4-6 2.4s-6-1.07-6-2.4v-3.3c0 1.33 2.69 2.4 6 2.4s6-1.07 6-2.4z"/>
    <path d="M15.5 18.5l3 3 3-3h-2v-3h-2v3z"/>
  </g>
</svg>
